<?xml version="1.0" standalone="no"?><!DOCTYPE svg PUBLIC "-//W3C//DTD SVG 1.1//EN" "http://www.w3.org/Graphics/SVG/1.1/DTD/svg11.dtd"><svg t="1533741908576" class="icon" style="" viewBox="0 0 1024 1024" version="1.1" xmlns="http://www.w3.org/2000/svg" p-id="3954" xmlns:xlink="http://www.w3.org/1999/xlink" width="200" height="200"><defs><style type="text/css"></style></defs><path d="M808.234667 473.749333C789.461333 326.869333 664 213.333333 512 213.333333c-152 0-277.461333 113.536-296.234667 260.416l11.648-2.346666c61.098667-12.266667 113.92 30.784 113.92 93.098666v193.642667c0 62.336-52.650667 105.408-113.92 93.098667l-87.637333-17.6C85.205333 822.698667 42.666667 770.922667 42.666667 715.413333v-108.16c0-51.776 36.629333-100.032 85.845333-115.370666C138.965333 289.152 306.666667 128 512 128c205.333333 0 373.034667 161.173333 383.488 363.904 49.216 15.317333 85.845333 63.573333 85.845333 115.349333v108.16c0 55.488-42.538667 107.264-97.109333 118.229334l-87.637333 17.6c-61.269333 12.309333-113.92-30.784-113.92-93.098667v-193.642667c0-62.314667 52.821333-105.344 113.92-93.077333l11.648 2.346667zM128 607.253333v108.16c0 14.805333 13.802667 31.616 28.586667 34.56l87.637333 17.621334c8.469333 1.706667 11.776-1.024 11.776-9.450667v-193.642667c0-8.32-3.413333-11.093333-11.776-9.429333l-87.637333 17.6c-14.954667 3.008-28.586667 19.626667-28.586667 34.581333z m768 0c0-14.976-13.632-31.573333-28.586667-34.56l-87.637333-17.621333c-8.362667-1.664-11.776 1.109333-11.776 9.429333v193.642667c0 8.426667 3.306667 11.136 11.776 9.429333l87.637333-17.6c14.784-2.965333 28.586667-19.776 28.586667-34.56v-108.16z" fill="" p-id="3955"></path></svg>