<?xml version="1.0" standalone="no"?><!DOCTYPE svg PUBLIC "-//W3C//DTD SVG 1.1//EN" "http://www.w3.org/Graphics/SVG/1.1/DTD/svg11.dtd"><svg t="1533741873100" class="icon" style="" viewBox="0 0 1024 1024" version="1.1" xmlns="http://www.w3.org/2000/svg" p-id="3724" xmlns:xlink="http://www.w3.org/1999/xlink" width="200" height="200"><defs><style type="text/css"></style></defs><path d="M512 981.333333C252.8 981.333333 42.666667 771.2 42.666667 512S252.8 42.666667 512 42.666667s469.333333 210.133333 469.333333 469.333333-210.133333 469.333333-469.333333 469.333333z m0-85.333333c212.074667 0 384-171.925333 384-384S724.074667 128 512 128 128 299.925333 128 512s171.925333 384 384 384z m30.165333-353.834667A42.538667 42.538667 0 0 1 512 554.666667h-192a42.666667 42.666667 0 1 1 0-85.333334h149.333333V256a42.666667 42.666667 0 1 1 85.333334 0v256c0 11.776-4.778667 22.442667-12.501334 30.165333z" fill="" p-id="3725"></path></svg>