<?xml version="1.0" standalone="no"?><!DOCTYPE svg PUBLIC "-//W3C//DTD SVG 1.1//EN" "http://www.w3.org/Graphics/SVG/1.1/DTD/svg11.dtd"><svg t="1533741883845" class="icon" style="" viewBox="0 0 1024 1024" version="1.1" xmlns="http://www.w3.org/2000/svg" p-id="3839" xmlns:xlink="http://www.w3.org/1999/xlink" width="200" height="200"><defs><style type="text/css"></style></defs><path d="M512 981.333333C276.352 981.333333 85.333333 790.314667 85.333333 554.666667S276.352 128 512 128s426.666667 191.018667 426.666667 426.666667-191.018667 426.666667-426.666667 426.666666z m0-85.333333c188.522667 0 341.333333-152.810667 341.333333-341.333333s-152.810667-341.333333-341.333333-341.333334S170.666667 366.144 170.666667 554.666667s152.810667 341.333333 341.333333 341.333333zM115.498667 264.832a42.666667 42.666667 0 0 1-60.330667-60.330667l149.333333-149.333333a42.666667 42.666667 0 0 1 60.330667 60.330667l-149.333333 149.333333z m853.333333-60.330667a42.666667 42.666667 0 0 1-60.330667 60.330667l-149.333333-149.333333a42.666667 42.666667 0 0 1 60.330667-60.330667l149.333333 149.333333z m-426.666667 380.330667A42.538667 42.538667 0 0 1 512 597.333333h-149.333333a42.666667 42.666667 0 1 1 0-85.333333h106.666666v-170.666667a42.666667 42.666667 0 1 1 85.333334 0v213.333334c0 11.776-4.778667 22.442667-12.501334 30.165333z" fill="" p-id="3840"></path></svg>