<?xml version="1.0" standalone="no"?><!DOCTYPE svg PUBLIC "-//W3C//DTD SVG 1.1//EN" "http://www.w3.org/Graphics/SVG/1.1/DTD/svg11.dtd"><svg t="1533741928946" class="icon" style="" viewBox="0 0 1024 1024" version="1.1" xmlns="http://www.w3.org/2000/svg" p-id="4736" xmlns:xlink="http://www.w3.org/1999/xlink" width="200" height="200"><defs><style type="text/css"></style></defs><path d="M981.333333 511.914667V874.453333A106.709333 106.709333 0 0 1 874.624 981.333333h-42.581333A106.645333 106.645333 0 0 1 725.333333 874.453333v-212.906666A106.709333 106.709333 0 0 1 832.042667 554.666667H896v-42.752C896 299.904 724.053333 128 512 128 299.882667 128 128 299.861333 128 511.914667V554.666667h63.957333A106.645333 106.645333 0 0 1 298.666667 661.546667v212.906666A106.709333 106.709333 0 0 1 191.957333 981.333333H149.376A106.645333 106.645333 0 0 1 42.666667 874.453333V511.936C42.666667 252.736 252.757333 42.666667 512 42.666667c259.2 0 469.333333 210.090667 469.333333 469.248zM128 640v234.453333A21.312 21.312 0 0 0 149.376 896h42.581333C203.797333 896 213.333333 886.421333 213.333333 874.453333v-212.906666A21.312 21.312 0 0 0 191.957333 640H128z m704.042667 0c-11.84 0-21.376 9.578667-21.376 21.546667v212.906666A21.312 21.312 0 0 0 832.042667 896h42.581333c11.84 0 21.376-9.578667 21.376-21.546667V640h-63.957333z" fill="" p-id="4737"></path></svg>